<svg id="png" viewBox="0 0 192 294" fill="none" xmlns="http://www.w3.org/2000/svg">
<g id="logo-light">
<g id="Group 4">
<g id="opachity25">
<path id="Ellipse 7" d="M115 13C129.359 13 141 24.6406 141 39C141 53.3594 129.359 65 115 65C104.184 65 94.9109 58.3958 90.9927 49L8.74228e-08 49L-7.86805e-07 29L90.9927 29C91.277 28.3182 91.5895 27.651 91.9288 27C96.2649 18.6804 104.969 13 115 13Z" fill="#1A1A1A" fill-opacity="0.7"/>
<circle id="Ellipse 3" cx="115" cy="39" r="15" transform="rotate(90 115 39)" fill="#138BCB" fill-opacity="0.7"/>
</g>
<g id="opachity25_2">
<path id="Ellipse 6" d="M115 119C129.359 119 141 130.641 141 145C141 159.359 129.359 171 115 171C104.184 171 94.9109 164.396 90.9927 155L8.74228e-08 155L-7.86805e-07 135L90.9927 135C91.277 134.318 91.5895 133.651 91.9288 133C96.2649 124.68 104.969 119 115 119Z" fill="#1A1A1A" fill-opacity="0.7"/>
<circle id="Ellipse 1" cx="115" cy="145" r="15" transform="rotate(90 115 145)" fill="#138BCB" fill-opacity="0.7"/>
</g>
<g id="opachity25_3">
<path id="Ellipse 5" d="M76.9999 118C62.6405 118 50.9999 106.359 50.9999 92C50.9999 77.6406 62.6405 66 76.9999 66C87.8157 66 97.089 72.6042 101.007 82L192 82V102L101.007 102C100.723 102.682 100.41 103.349 100.071 104C95.7349 112.32 87.0308 118 76.9999 118Z" fill="#1A1A1A" fill-opacity="0.7"/>
<circle id="Ellipse 2" cx="76.9999" cy="92" r="15" transform="rotate(90 76.9999 92)" fill="#138BCB" fill-opacity="0.7"/>
</g>
</g>
<g id="Group 5">
<g id="left">
<g id="bar-left" filter="url(#filter0_i)">
<path d="M17 77C17 62.6406 28.6406 51 43 51C57.3594 51 69 62.6406 69 77C69 87.8158 62.3958 97.0891 53 101.007L53 192L33 192L33 101.007C32.3181 100.723 31.651 100.41 31 100.071C22.6804 95.7351 17 87.0309 17 77Z" fill="#138BCB"/>
</g>
<circle id="orange" cx="42" cy="77" r="15" fill="#F46C0F"/>
</g>
<g id="center">
<g id="bar-center" filter="url(#filter1_i)">
<path d="M121 115C121 129.359 109.359 141 95 141C80.6406 141 69 129.359 69 115C69 104.184 75.6042 94.9109 85 90.9927L85 8.74228e-08L105 -7.86805e-07L105 90.9927C105.682 91.277 106.349 91.5895 107 91.9288C115.32 96.2649 121 104.969 121 115Z" fill="#138BCB"/>
</g>
<circle id="white" cx="95" cy="115" r="15" fill="#FCFCFC"/>
</g>
<g id="right">
<g id="bar-right" filter="url(#filter2_i)">
<path d="M122 77C122 62.6406 133.641 51 148 51C162.359 51 174 62.6406 174 77C174 87.8158 167.396 97.0891 158 101.007L158 192L138 192L138 101.007C137.318 100.723 136.651 100.41 136 100.071C127.68 95.7351 122 87.0309 122 77Z" fill="#138BCB"/>
</g>
<circle id="green" cx="148" cy="77" r="15" fill="#60E20C"/>
</g>
</g>
<g id="ALSOL" filter="url(#filter3_i)">
<path d="M32.2465 239.141C32.098 238.755 31.727 238.5 31.3132 238.5H18.1868C17.773 238.5 17.402 238.755 17.2535 239.141L15.2465 244.359C15.098 244.745 14.727 245 14.3132 245H5.94563C5.2467 245 4.76338 244.301 5.0099 243.647L19.756 204.527C19.9028 204.138 20.2755 203.88 20.6917 203.88H29.3083C29.7245 203.88 30.0972 204.138 30.244 204.527L44.9901 243.647C45.2366 244.301 44.7533 245 44.0544 245H35.1868C34.773 245 34.402 244.745 34.2535 244.359L32.2465 239.141ZM27.63 229.5C28.3075 229.5 28.789 228.84 28.5825 228.195L25.8967 219.802C25.6056 218.893 24.3269 218.87 24.0034 219.768L20.9819 228.161C20.7473 228.813 21.2302 229.5 21.9228 229.5H27.63Z" fill="#138BCB"/>
<path d="M60 254C60 254.552 60.4477 255 61 255H76C76.5523 255 77 255.448 77 256V264C77 264.552 76.5523 265 76 265H50.5C49.9477 265 49.5 264.552 49.5 264V225C49.5 224.448 49.9477 224 50.5 224H59C59.5523 224 60 224.448 60 225V254Z" fill="#138BCB"/>
<path d="M87.44 246C84.36 246 81.6 245.5 79.16 244.5C76.72 243.5 74.76 242.02 73.28 240.06C72.022 238.348 71.283 236.33 71.0629 234.007C71.0098 233.446 71.4658 232.98 72.0294 232.98H81.0173C81.5301 232.98 81.951 233.37 82.0613 233.871C82.3108 235.005 82.8037 235.908 83.54 236.58C84.46 237.38 85.66 237.78 87.14 237.78C88.66 237.78 89.86 237.44 90.74 236.76C91.62 236.04 92.06 235.06 92.06 233.82C92.06 232.78 91.7 231.92 90.98 231.24C90.3 230.56 89.44 230 88.4 229.56C87.4 229.12 85.96 228.62 84.08 228.06C81.36 227.22 79.14 226.38 77.42 225.54C75.7 224.7 74.22 223.46 72.98 221.82C71.74 220.18 71.12 218.04 71.12 215.4C71.12 211.48 72.54 208.42 75.38 206.22C78.22 203.98 81.92 202.86 86.48 202.86C91.12 202.86 94.86 203.98 97.7 206.22C100.284 208.222 101.776 210.952 102.174 214.412C102.239 214.98 101.78 215.46 101.208 215.46H92.1029C91.5734 215.46 91.1486 215.043 91.0286 214.527C90.8141 213.606 90.3579 212.856 89.66 212.28C88.74 211.48 87.56 211.08 86.12 211.08C84.88 211.08 83.88 211.42 83.12 212.1C82.36 212.74 81.98 213.68 81.98 214.92C81.98 216.28 82.62 217.34 83.9 218.1C85.18 218.86 87.18 219.68 89.9 220.56C92.62 221.48 94.82 222.36 96.5 223.2C98.22 224.04 99.7 225.26 100.94 226.86C102.18 228.46 102.8 230.52 102.8 233.04C102.8 235.44 102.18 237.62 100.94 239.58C99.74 241.54 97.98 243.1 95.66 244.26C93.34 245.42 90.6 246 87.44 246Z" fill="#138BCB"/>
<path d="M130.96 265C127 265 123.36 264.08 120.04 262.24C116.76 260.4 114.14 257.84 112.18 254.56C110.26 251.24 109.3 247.52 109.3 243.4C109.3 239.28 110.26 235.58 112.18 232.3C114.14 229.02 116.76 226.46 120.04 224.62C123.36 222.78 127 221.86 130.96 221.86C134.92 221.86 138.54 222.78 141.82 224.62C145.14 226.46 147.74 229.02 149.62 232.3C151.54 235.58 152.5 239.28 152.5 243.4C152.5 247.52 151.54 251.24 149.62 254.56C147.7 257.84 145.1 260.4 141.82 262.24C138.54 264.08 134.92 265 130.96 265ZM130.96 255.64C134.32 255.64 137 254.52 139 252.28C141.04 250.04 142.06 247.08 142.06 243.4C142.06 239.68 141.04 236.72 139 234.52C137 232.28 134.32 231.16 130.96 231.16C127.56 231.16 124.84 232.26 122.8 234.46C120.8 236.66 119.8 239.64 119.8 243.4C119.8 247.12 120.8 250.1 122.8 252.34C124.84 254.54 127.56 255.64 130.96 255.64Z" fill="#138BCB"/>
<path d="M173 234.238C173 234.79 173.448 235.238 174 235.238H188.736C189.289 235.238 189.736 235.686 189.736 236.238V244C189.736 244.552 189.289 245 188.736 245H163.506C162.951 245 162.503 244.549 162.506 243.994L162.734 204.874C162.737 204.324 163.184 203.88 163.734 203.88H172C172.552 203.88 173 204.328 173 204.88V234.238Z" fill="#138BCB"/>
</g>
<g id="TECH">
<path d="M78.175 275.45V278.875H73.525V293H69.25V278.875H64.6V275.45H78.175Z" fill="white"/>
<path d="M85.525 278.875V282.425H91.25V285.725H85.525V289.575H92V293H81.25V275.45H92V278.875H85.525Z" fill="white"/>
<path d="M95.85 284.4C95.85 282.667 96.225 281.125 96.975 279.775C97.725 278.408 98.7667 277.35 100.1 276.6C101.45 275.833 102.975 275.45 104.675 275.45C106.758 275.45 108.542 276 110.025 277.1C111.508 278.2 112.5 279.7 113 281.6H108.3C107.95 280.867 107.45 280.308 106.8 279.925C106.167 279.542 105.442 279.35 104.625 279.35C103.308 279.35 102.242 279.808 101.425 280.725C100.608 281.642 100.2 282.867 100.2 284.4C100.2 285.933 100.608 287.158 101.425 288.075C102.242 288.992 103.308 289.45 104.625 289.45C105.442 289.45 106.167 289.258 106.8 288.875C107.45 288.492 107.95 287.933 108.3 287.2H113C112.5 289.1 111.508 290.6 110.025 291.7C108.542 292.783 106.758 293.325 104.675 293.325C102.975 293.325 101.45 292.95 100.1 292.2C98.7667 291.433 97.725 290.375 96.975 289.025C96.225 287.675 95.85 286.133 95.85 284.4Z" fill="white"/>
<path d="M130.226 275.45V293H125.951V285.775H119.301V293H115.026V275.45H119.301V282.325H125.951V275.45H130.226Z" fill="white"/>
</g>
</g>
<defs>
<filter id="filter0_i" x="15" y="51" width="54" height="141" filterUnits="userSpaceOnUse" color-interpolation-filters="sRGB">
<feFlood flood-opacity="0" result="BackgroundImageFix"/>
<feBlend mode="normal" in="SourceGraphic" in2="BackgroundImageFix" result="shape"/>
<feColorMatrix in="SourceAlpha" type="matrix" values="0 0 0 0 0 0 0 0 0 0 0 0 0 0 0 0 0 0 127 0" result="hardAlpha"/>
<feOffset dx="-2"/>
<feGaussianBlur stdDeviation="2"/>
<feComposite in2="hardAlpha" operator="arithmetic" k2="-1" k3="1"/>
<feColorMatrix type="matrix" values="0 0 0 0 1 0 0 0 0 1 0 0 0 0 1 0 0 0 0.25 0"/>
<feBlend mode="normal" in2="shape" result="effect1_innerShadow"/>
</filter>
<filter id="filter1_i" x="67" y="0" width="54" height="141" filterUnits="userSpaceOnUse" color-interpolation-filters="sRGB">
<feFlood flood-opacity="0" result="BackgroundImageFix"/>
<feBlend mode="normal" in="SourceGraphic" in2="BackgroundImageFix" result="shape"/>
<feColorMatrix in="SourceAlpha" type="matrix" values="0 0 0 0 0 0 0 0 0 0 0 0 0 0 0 0 0 0 127 0" result="hardAlpha"/>
<feOffset dx="-2"/>
<feGaussianBlur stdDeviation="2"/>
<feComposite in2="hardAlpha" operator="arithmetic" k2="-1" k3="1"/>
<feColorMatrix type="matrix" values="0 0 0 0 1 0 0 0 0 1 0 0 0 0 1 0 0 0 0.25 0"/>
<feBlend mode="normal" in2="shape" result="effect1_innerShadow"/>
</filter>
<filter id="filter2_i" x="120" y="51" width="54" height="141" filterUnits="userSpaceOnUse" color-interpolation-filters="sRGB">
<feFlood flood-opacity="0" result="BackgroundImageFix"/>
<feBlend mode="normal" in="SourceGraphic" in2="BackgroundImageFix" result="shape"/>
<feColorMatrix in="SourceAlpha" type="matrix" values="0 0 0 0 0 0 0 0 0 0 0 0 0 0 0 0 0 0 127 0" result="hardAlpha"/>
<feOffset dx="-2"/>
<feGaussianBlur stdDeviation="2"/>
<feComposite in2="hardAlpha" operator="arithmetic" k2="-1" k3="1"/>
<feColorMatrix type="matrix" values="0 0 0 0 1 0 0 0 0 1 0 0 0 0 1 0 0 0 0.25 0"/>
<feBlend mode="normal" in2="shape" result="effect1_innerShadow"/>
</filter>
<filter id="filter3_i" x="2.9447" y="202.86" width="186.792" height="62.14" filterUnits="userSpaceOnUse" color-interpolation-filters="sRGB">
<feFlood flood-opacity="0" result="BackgroundImageFix"/>
<feBlend mode="normal" in="SourceGraphic" in2="BackgroundImageFix" result="shape"/>
<feColorMatrix in="SourceAlpha" type="matrix" values="0 0 0 0 0 0 0 0 0 0 0 0 0 0 0 0 0 0 127 0" result="hardAlpha"/>
<feOffset dx="-2"/>
<feGaussianBlur stdDeviation="2"/>
<feComposite in2="hardAlpha" operator="arithmetic" k2="-1" k3="1"/>
<feColorMatrix type="matrix" values="0 0 0 0 1 0 0 0 0 1 0 0 0 0 1 0 0 0 0.25 0"/>
<feBlend mode="normal" in2="shape" result="effect1_innerShadow"/>
</filter>
</defs>
</svg>
